# xmcd
#
# Track frame offsets: 
#        150
#        15278
#        31014
#        57531
#        76082
#        105887
#        121595
#        152691
#        185368
#        199588
#        231293
#
# Disc length: 3536 seconds
#
# Revision: 0
# Processed by: cddbd v1.5.2PL0 Copyright (c) Steve Scherf et al.
# Submitted via: ExactAudioCopy v1.0b1
#
DISCID=6f0dce0b
DTITLE=Cree - Cree
DYEAR=2006
DGENRE=Blues
TTITLE0=Twister
TTITLE1=Sex and Roll
TTITLE2=Czyja To Wina
TTITLE3=Rockowiec
TTITLE4=O Życiu
TTITLE5=Rosyjska Ruletka
TTITLE6=Kiedy Znowu
TTITLE7=Kramek
TTITLE8=Zostań Ze Mną
TTITLE9=Czyja To Wina
TTITLE10=Twister
EXTD=
EXTT0=
EXTT1=
EXTT2=
EXTT3=
EXTT4=
EXTT5=
EXTT6=
EXTT7=
EXTT8=
EXTT9=
EXTT10=
PLAYORDER=
